  0
SECTION
  2
HEADER
  9
$ACADVER
  1
AC1015
  9
$ACADMAINTVER
 70
6
  9
$DWGCODEPAGE
  3
ANSI_1252
  9
$INSBASE
 10
0.0
 20
0.0
 30
0.0
  9
$EXTMIN
 10
1e+20
 20
1e+20
 30
1e+20
  9
$EXTMAX
 10
-1e+20
 20
-1e+20
 30
-1e+20
  9
$LIMMIN
 10
0.0
 20
0.0
  9
$LIMMAX
 10
420.0
 20
297.0
  9
$ORTHOMODE
 70
0
  9
$REGENMODE
 70
1
  9
$FILLMODE
 70
1
  9
$QTEXTMODE
 70
0
  9
$MIRRTEXT
 70
1
  9
$LTSCALE
 40
1.0
  9
$ATTMODE
 70
1
  9
$TEXTSIZE
 40
2.5
  9
$TRACEWID
 40
1.0
  9
$TEXTSTYLE
  7
Standard
  9
$CLAYER
  8
0
  9
$CELTYPE
  6
ByLayer
  9
$CECOLOR
 62
256
  9
$CELTSCALE
 40
1.0
  9
$DISPSILH
 70
0
  9
$DIMSCALE
 40
1.0
  9
$DIMASZ
 40
2.5
  9
$DIMEXO
 40
0.625
  9
$DIMDLI
 40
3.75
  9
$DIMRND
 40
0.0
  9
$DIMDLE
 40
0.0
  9
$DIMEXE
 40
1.25
  9
$DIMTP
 40
0.0
  9
$DIMTM
 40
0.0
  9
$DIMTXT
 40
2.5
  9
$DIMCEN
 40
2.5
  9
$DIMTSZ
 40
0.0
  9
$DIMTOL
 70
0
  9
$DIMLIM
 70
0
  9
$DIMTIH
 70
0
  9
$DIMTOH
 70
0
  9
$DIMSE1
 70
0
  9
$DIMSE2
 70
0
  9
$DIMTAD
 70
1
  9
$DIMZIN
 70
8
  9
$DIMBLK
  1

  9
$DIMASO
 70
1
  9
$DIMSHO
 70
1
  9
$DIMPOST
  1

  9
$DIMAPOST
  1

  9
$DIMALT
 70
0
  9
$DIMALTD
 70
3
  9
$DIMALTF
 40
0.03937007874
  9
$DIMLFAC
 40
1.0
  9
$DIMTOFL
 70
1
  9
$DIMTVP
 40
0.0
  9
$DIMTIX
 70
0
  9
$DIMSOXD
 70
0
  9
$DIMSAH
 70
0
  9
$DIMBLK1
  1

  9
$DIMBLK2
  1

  9
$DIMSTYLE
  2
ISO-25
  9
$DIMCLRD
 70
0
  9
$DIMCLRE
 70
0
  9
$DIMCLRT
 70
0
  9
$DIMTFAC
 40
1.0
  9
$DIMGAP
 40
0.625
  9
$DIMJUST
 70
0
  9
$DIMSD1
 70
0
  9
$DIMSD2
 70
0
  9
$DIMTOLJ
 70
0
  9
$DIMTZIN
 70
8
  9
$DIMALTZ
 70
0
  9
$DIMALTTZ
 70
0
  9
$DIMUPT
 70
0
  9
$DIMDEC
 70
2
  9
$DIMTDEC
 70
2
  9
$DIMALTU
 70
2
  9
$DIMALTTD
 70
3
  9
$DIMTXSTY
  7
Standard
  9
$DIMAUNIT
 70
0
  9
$DIMADEC
 70
0
  9
$DIMALTRND
 40
0.0
  9
$DIMAZIN
 70
0
  9
$DIMDSEP
 70
44
  9
$DIMATFIT
 70
3
  9
$DIMFRAC
 70
0
  9
$DIMLDRBLK
  1

  9
$DIMLUNIT
 70
2
  9
$DIMLWD
 70
-2
  9
$DIMLWE
 70
-2
  9
$DIMTMOVE
 70
0
  9
$LUNITS
 70
2
  9
$LUPREC
 70
4
  9
$SKETCHINC
 40
1.0
  9
$FILLETRAD
 40
10.0
  9
$AUNITS
 70
0
  9
$AUPREC
 70
2
  9
$MENU
  1
.
  9
$ELEVATION
 40
0.0
  9
$PELEVATION
 40
0.0
  9
$THICKNESS
 40
0.0
  9
$LIMCHECK
 70
0
  9
$CHAMFERA
 40
0.0
  9
$CHAMFERB
 40
0.0
  9
$CHAMFERC
 40
0.0
  9
$CHAMFERD
 40
0.0
  9
$SKPOLY
 70
0
  9
$TDCREATE
 40
2461093.6090625
  9
$TDUCREATE
 40
2458532.153996898
  9
$TDUPDATE
 40
2461093.6090625
  9
$TDUUPDATE
 40
2458532.1544311
  9
$TDINDWG
 40
0.0
  9
$TDUSRTIMER
 40
0.0
  9
$USRTIMER
 70
1
  9
$ANGBASE
 50
0.0
  9
$ANGDIR
 70
0
  9
$PDMODE
 70
0
  9
$PDSIZE
 40
0.0
  9
$PLINEWID
 40
0.0
  9
$SPLFRAME
 70
0
  9
$SPLINETYPE
 70
6
  9
$SPLINESEGS
 70
8
  9
$HANDSEED
  5
34
  9
$SURFTAB1
 70
6
  9
$SURFTAB2
 70
6
  9
$SURFTYPE
 70
6
  9
$SURFU
 70
6
  9
$SURFV
 70
6
  9
$UCSBASE
  2

  9
$UCSNAME
  2

  9
$UCSORG
 10
0.0
 20
0.0
 30
0.0
  9
$UCSXDIR
 10
1.0
 20
0.0
 30
0.0
  9
$UCSYDIR
 10
0.0
 20
1.0
 30
0.0
  9
$UCSORTHOREF
  2

  9
$UCSORTHOVIEW
 70
0
  9
$UCSORGTOP
 10
0.0
 20
0.0
 30
0.0
  9
$UCSORGBOTTOM
 10
0.0
 20
0.0
 30
0.0
  9
$UCSORGLEFT
 10
0.0
 20
0.0
 30
0.0
  9
$UCSORGRIGHT
 10
0.0
 20
0.0
 30
0.0
  9
$UCSORGFRONT
 10
0.0
 20
0.0
 30
0.0
  9
$UCSORGBACK
 10
0.0
 20
0.0
 30
0.0
  9
$PUCSBASE
  2

  9
$PUCSNAME
  2

  9
$PUCSORG
 10
0.0
 20
0.0
 30
0.0
  9
$PUCSXDIR
 10
1.0
 20
0.0
 30
0.0
  9
$PUCSYDIR
 10
0.0
 20
1.0
 30
0.0
  9
$PUCSORTHOREF
  2

  9
$PUCSORTHOVIEW
 70
0
  9
$PUCSORGTOP
 10
0.0
 20
0.0
 30
0.0
  9
$PUCSORGBOTTOM
 10
0.0
 20
0.0
 30
0.0
  9
$PUCSORGLEFT
 10
0.0
 20
0.0
 30
0.0
  9
$PUCSORGRIGHT
 10
0.0
 20
0.0
 30
0.0
  9
$PUCSORGFRONT
 10
0.0
 20
0.0
 30
0.0
  9
$PUCSORGBACK
 10
0.0
 20
0.0
 30
0.0
  9
$USERI1
 70
0
  9
$USERI2
 70
0
  9
$USERI3
 70
0
  9
$USERI4
 70
0
  9
$USERI5
 70
0
  9
$USERR1
 40
0.0
  9
$USERR2
 40
0.0
  9
$USERR3
 40
0.0
  9
$USERR4
 40
0.0
  9
$USERR5
 40
0.0
  9
$WORLDVIEW
 70
1
  9
$SHADEDGE
 70
3
  9
$SHADEDIF
 70
70
  9
$TILEMODE
 70
1
  9
$MAXACTVP
 70
64
  9
$PINSBASE
 10
0.0
 20
0.0
 30
0.0
  9
$PLIMCHECK
 70
0
  9
$PEXTMIN
 10
1e+20
 20
1e+20
 30
1e+20
  9
$PEXTMAX
 10
-1e+20
 20
-1e+20
 30
-1e+20
  9
$PLIMMIN
 10
0.0
 20
0.0
  9
$PLIMMAX
 10
420.0
 20
297.0
  9
$UNITMODE
 70
0
  9
$VISRETAIN
 70
1
  9
$PLINEGEN
 70
0
  9
$PSLTSCALE
 70
1
  9
$TREEDEPTH
 70
3020
  9
$CMLSTYLE
  2
Standard
  9
$CMLJUST
 70
0
  9
$CMLSCALE
 40
20.0
  9
$PROXYGRAPHICS
 70
1
  9
$MEASUREMENT
 70
1
  9
$CELWEIGHT
370
-1
  9
$ENDCAPS
280
0
  9
$JOINSTYLE
280
0
  9
$LWDISPLAY
290
0
  9
$INSUNITS
 70
6
  9
$HYPERLINKBASE
  1

  9
$STYLESHEET
  1

  9
$XEDIT
290
1
  9
$CEPSNTYPE
380
0
  9
$PSTYLEMODE
290
1
  9
$FINGERPRINTGUID
  2
{36C23920-4716-4524-AB77-9F90D4814486}
  9
$VERSIONGUID
  2
{E7AC046E-591D-44C9-AAE2-37EDF2967D4C}
  9
$EXTNAMES
290
1
  9
$PSVPSCALE
 40
0.0
  9
$OLESTARTUP
290
0
  0
ENDSEC
  0
SECTION
  2
CLASSES
  0
CLASS
  1
ACDBDICTIONARYWDFLT
  2
AcDbDictionaryWithDefault
  3
ObjectDBX Classes
 90
0
280
0
281
0
  0
CLASS
  1
SUN
  2
AcDbSun
  3
SCENEOE
 90
1153
280
0
281
0
  0
CLASS
  1
VISUALSTYLE
  2
AcDbVisualStyle
  3
ObjectDBX Classes
 90
4095
280
0
281
0
  0
CLASS
  1
MATERIAL
  2
AcDbMaterial
  3
ObjectDBX Classes
 90
1153
280
0
281
0
  0
CLASS
  1
SCALE
  2
AcDbScale
  3
ObjectDBX Classes
 90
1153
280
0
281
0
  0
CLASS
  1
TABLESTYLE
  2
AcDbTableStyle
  3
ObjectDBX Classes
 90
4095
280
0
281
0
  0
CLASS
  1
MLEADERSTYLE
  2
AcDbMLeaderStyle
  3
ACDB_MLEADERSTYLE_CLASS
 90
4095
280
0
281
0
  0
CLASS
  1
DICTIONARYVAR
  2
AcDbDictionaryVar
  3
ObjectDBX Classes
 90
0
280
0
281
0
  0
CLASS
  1
CELLSTYLEMAP
  2
AcDbCellStyleMap
  3
ObjectDBX Classes
 90
1152
280
0
281
0
  0
CLASS
  1
MENTALRAYRENDERSETTINGS
  2
AcDbMentalRayRenderSettings
  3
SCENEOE
 90
1024
280
0
281
0
  0
CLASS
  1
ACDBDETAILVIEWSTYLE
  2
AcDbDetailViewStyle
  3
ObjectDBX Classes
 90
1025
280
0
281
0
  0
CLASS
  1
ACDBSECTIONVIEWSTYLE
  2
AcDbSectionViewStyle
  3
ObjectDBX Classes
 90
1025
280
0
281
0
  0
CLASS
  1
RASTERVARIABLES
  2
AcDbRasterVariables
  3
ISM
 90
0
280
0
281
0
  0
CLASS
  1
ACDBPLACEHOLDER
  2
AcDbPlaceHolder
  3
ObjectDBX Classes
 90
0
280
0
281
0
  0
CLASS
  1
LAYOUT
  2
AcDbLayout
  3
ObjectDBX Classes
 90
0
280
0
281
0
  0
ENDSEC
  0
SECTION
  2
TABLES
  0
TABLE
  2
VPORT
  5
8
330
0
100
AcDbSymbolTable
 70
1
  0
VPORT
  5
23
330
8
100
AcDbSymbolTableRecord
100
AcDbViewportTableRecord
  2
*Active
 70
0
 10
0.0
 20
0.0
 11
1.0
 21
1.0
 12
0.0
 22
0.0
 13
0.0
 23
0.0
 14
0.5
 24
0.5
 15
0.5
 25
0.5
 16
0.0
 26
0.0
 36
1.0
 17
0.0
 27
0.0
 37
0.0
 40
1000.0
 41
1.34
 42
50.0
 43
0.0
 44
0.0
 50
0.0
 51
0.0
 71
0
 72
1000
 73
1
 74
3
 75
0
 76
0
 77
0
 78
0
281
0
 65
0
146
0.0
  0
ENDTAB
  0
TABLE
  2
LTYPE
  5
2
330
0
100
AcDbSymbolTable
 70
3
  0
LTYPE
  5
24
330
2
100
AcDbSymbolTableRecord
100
AcDbLinetypeTableRecord
  2
ByBlock
 70
0
  3

 72
65
 73
0
 40
0.0
  0
LTYPE
  5
25
330
2
100
AcDbSymbolTableRecord
100
AcDbLinetypeTableRecord
  2
ByLayer
 70
0
  3

 72
65
 73
0
 40
0.0
  0
LTYPE
  5
26
330
2
100
AcDbSymbolTableRecord
100
AcDbLinetypeTableRecord
  2
Continuous
 70
0
  3

 72
65
 73
0
 40
0.0
  0
ENDTAB
  0
TABLE
  2
LAYER
  5
1
330
0
100
AcDbSymbolTable
 70
3
  0
LAYER
  5
27
330
1
100
AcDbSymbolTableRecord
100
AcDbLayerTableRecord
  2
0
 70
0
 62
7
  6
Continuous
370
-3
390
13
  0
LAYER
  5
28
330
1
100
AcDbSymbolTableRecord
100
AcDbLayerTableRecord
  2
Defpoints
 70
0
 62
7
  6
Continuous
290
0
370
-3
390
13
  0
LAYER
  5
2F
330
1
100
AcDbSymbolTableRecord
100
AcDbLayerTableRecord
  2
all
 70
0
 62
7
  6
Continuous
370
-3
390
13
  0
ENDTAB
  0
TABLE
  2
STYLE
  5
5
330
0
100
AcDbSymbolTable
 70
1
  0
STYLE
  5
29
330
5
100
AcDbSymbolTableRecord
100
AcDbTextStyleTableRecord
  2
Standard
 70
0
 40
0.0
 41
1.0
 50
0.0
 71
0
 42
2.5
  3
txt
  4

  0
ENDTAB
  0
TABLE
  2
VIEW
  5
7
330
0
100
AcDbSymbolTable
 70
0
  0
ENDTAB
  0
TABLE
  2
UCS
  5
6
330
0
100
AcDbSymbolTable
 70
0
  0
ENDTAB
  0
TABLE
  2
APPID
  5
3
330
0
100
AcDbSymbolTable
 70
3
  0
APPID
  5
2A
330
3
100
AcDbSymbolTableRecord
100
AcDbRegAppTableRecord
  2
ACAD
 70
0
  0
APPID
  5
31
330
3
100
AcDbSymbolTableRecord
100
AcDbRegAppTableRecord
  2
HATCHBACKGROUNDCOLOR
 70
0
  0
APPID
  5
32
330
3
100
AcDbSymbolTableRecord
100
AcDbRegAppTableRecord
  2
EZDXF
 70
0
  0
ENDTAB
  0
TABLE
  2
DIMSTYLE
  5
4
330
0
100
AcDbSymbolTable
 70
1
100
AcDbDimStyleTable
  0
DIMSTYLE
105
2B
330
4
100
AcDbSymbolTableRecord
100
AcDbDimStyleTableRecord
  2
Standard
 70
0
  3

  4

 40
1.0
 41
2.5
 42
0.625
 43
3.75
 44
1.25
 45
0.0
 46
0.0
 47
0.0
 48
0.0
140
2.5
141
2.5
142
0.0
143
0.03937007874
144
1.0
145
0.0
146
1.0
147
0.625
148
0.0
 71
0
 72
0
 73
0
 74
0
 75
0
 76
0
 77
1
 78
8
 79
3
170
0
171
3
172
1
173
0
174
0
175
0
176
0
177
0
178
0
179
2
271
2
272
2
273
2
274
3
275
0
276
0
277
2
278
44
279
0
280
0
281
0
282
0
283
0
284
8
285
0
286
0
288
0
289
3
371
-2
372
-2
  0
ENDTAB
  0
TABLE
  2
BLOCK_RECORD
  5
9
330
0
100
AcDbSymbolTable
 70
2
  0
BLOCK_RECORD
  5
17
330
9
100
AcDbSymbolTableRecord
100
AcDbBlockTableRecord
  2
*Model_Space
340
1A
  0
BLOCK_RECORD
  5
1B
330
9
100
AcDbSymbolTableRecord
100
AcDbBlockTableRecord
  2
*Paper_Space
340
1E
  0
ENDTAB
  0
ENDSEC
  0
SECTION
  2
BLOCKS
  0
BLOCK
  5
18
330
17
100
AcDbEntity
  8
0
100
AcDbBlockBegin
  2
*Model_Space
 70
0
 10
0.0
 20
0.0
 30
0.0
  3
*Model_Space
  1

  0
ENDBLK
  5
19
330
17
100
AcDbEntity
  8
0
100
AcDbBlockEnd
  0
BLOCK
  5
1C
330
1B
100
AcDbEntity
  8
0
100
AcDbBlockBegin
  2
*Paper_Space
 70
0
 10
0.0
 20
0.0
 30
0.0
  3
*Paper_Space
  1

  0
ENDBLK
  5
1D
330
1B
100
AcDbEntity
  8
0
100
AcDbBlockEnd
  0
ENDSEC
  0
SECTION
  2
ENTITIES
  0
MESH
  5
30
330
17
100
AcDbEntity
  8
all
 62
252
100
AcDbSubDMesh
 71
2
 72
0
 91
0
 92
156
 10
-0.010105629451572895
 20
2.918457269668579
 30
0.0
 10
10.071020126342773
 20
1.894453763961792
 30
0.0
 10
10.635165214538574
 20
6.4588093757629395
 30
0.0
 10
11.662829399108887
 20
1.732763648033142
 30
0.0
 10
12.027998924255371
 20
6.317330837249756
 30
0.0
 10
9.499977111816406
 20
23.772159576416016
 30
0.0
 10
10.131021499633789
 20
28.995126724243164
 30
0.0
 10
17.210145950317383
 20
22.88847541809082
 30
0.0
 10
17.46715545654297
 20
28.812829971313477
 30
0.0
 10
-0.010105629451572895
 20
2.918457269668579
 30
26.5
 10
10.071020126342773
 20
1.894453763961792
 30
26.5
 10
10.635165214538574
 20
6.4588093757629395
 30
26.5
 10
11.662829399108887
 20
1.732763648033142
 30
26.5
 10
12.027998924255371
 20
6.317330837249756
 30
26.5
 10
9.499977111816406
 20
23.772159576416016
 30
26.5
 10
9.499977111816406
 20
23.772159576416016
 30
28.399999618530273
 10
10.131021499633789
 20
28.995126724243164
 30
26.5
 10
10.131021499633789
 20
28.995126724243164
 30
28.399999618530273
 10
17.210145950317383
 20
22.88847541809082
 30
26.5
 10
17.210145950317383
 20
22.88847541809082
 30
28.399999618530273
 10
17.46715545654297
 20
28.812829971313477
 30
26.5
 10
17.46715545654297
 20
28.812829971313477
 30
28.649999618530273
 10
4.3296074867248535
 20
46.631683349609375
 30
0.0
 10
4.627723217010498
 20
49.56658172607422
 30
0.0
 10
6.5381927490234375
 20
68.37480163574219
 30
0.0
 10
8.370414733886719
 20
71.15386962890625
 30
0.0
 10
8.370414733886719
 20
71.15386962890625
 30
14.300000190734863
 10
14.692441940307617
 20
45.67958068847656
 30
0.0
 10
14.970346450805664
 20
48.41550064086914
 30
0.0
 10
9.442569732666016
 20
80.71949005126953
 30
0.0
 10
16.890920639038086
 20
67.32321166992188
 30
0.0
 10
16.897253036499023
 20
67.37019348144531
 30
0.0
 10
16.897253036499023
 20
67.37019348144531
 30
0.23235608637332916
 10
16.897253036499023
 20
67.37019348144531
 30
0.4116456210613251
 10
17.28069496154785
 20
70.21443176269531
 30
0.0
 10
9.442569732666016
 20
80.71949005126953
 30
14.300000190734863
 10
17.28069496154785
 20
70.21443176269531
 30
14.300000190734863
 10
17.29863166809082
 20
70.34748840332031
 30
14.300000190734863
 10
4.3296074867248535
 20
46.631683349609375
 30
26.5
 10
4.627723217010498
 20
49.56658172607422
 30
26.5
 10
6.5381927490234375
 20
68.37480163574219
 30
26.5
 10
14.692441940307617
 20
45.67958068847656
 30
26.5
 10
14.970346450805664
 20
48.41550064086914
 30
26.5
 10
16.890920639038086
 20
67.32321166992188
 30
26.5
 10
16.897253036499023
 20
67.37019348144531
 30
26.5
 10
17.29863166809082
 20
70.34748840332031
 30
26.5
 10
21.743955612182617
 20
0.7087602019309998
 30
0.0
 10
21.753738403320312
 20
0.807296633720398
 30
0.0
 10
21.743955612182617
 20
0.7087602019309998
 30
6.449999809265137
 10
21.753738403320312
 20
0.807296633720398
 30
6.449999809265137
 10
21.85354995727539
 20
0.7981426119804382
 30
6.449999809265137
 10
17.841190338134766
 20
28.111440658569336
 30
0.0
 10
22.124351501464844
 20
28.256929397583008
 30
0.0
 10
22.12303924560547
 20
28.239389419555664
 30
0.0
 10
17.9476261138916
 20
32.55342483520508
 30
0.0
 10
22.42836570739746
 20
28.220640182495117
 30
0.0
 10
23.117919921875
 20
28.13833236694336
 30
0.0
 10
23.12301254272461
 20
28.1779842376709
 30
0.0
 10
24.462846755981445
 20
28.0957088470459
 30
0.0
 10
23.13861656188965
 20
28.29946517944336
 30
6.449999809265137
 10
24.625322341918945
 20
28.085731506347656
 30
6.449999809265137
 10
22.40453338623047
 20
32.00019454956055
 30
0.0
 10
22.427248001098633
 20
32.01871871948242
 30
0.0
 10
22.514127731323242
 20
32.089576721191406
 30
0.0
 10
24.82672691345215
 20
31.761018753051758
 30
0.0
 10
23.5909366607666
 20
31.820898056030273
 30
6.449999809265137
 10
24.996198654174805
 20
31.736942291259766
 30
6.449999809265137
 10
23.13861656188965
 20
28.29946517944336
 30
7.17869758605957
 10
29.810606002807617
 20
-0.010105629451572895
 30
0.0
 10
29.810606002807617
 20
-0.010105629451572895
 30
6.449999809265137
 10
21.85354995727539
 20
0.7981426119804382
 30
26.5
 10
17.841190338134766
 20
28.111440658569336
 30
26.5
 10
17.841190338134766
 20
28.111440658569336
 30
28.399999618530273
 10
17.9476261138916
 20
32.55342483520508
 30
26.5
 10
17.9476261138916
 20
32.55342483520508
 30
28.649999618530273
 10
23.117919921875
 20
28.13833236694336
 30
26.5
 10
23.13861656188965
 20
28.29946517944336
 30
26.5
 10
23.117919921875
 20
28.13833236694336
 30
28.649999618530273
 10
24.625322341918945
 20
28.085731506347656
 30
26.5
 10
23.5909366607666
 20
31.820898056030273
 30
26.5
 10
23.598390579223633
 20
31.87892723083496
 30
26.5
 10
23.598390579223633
 20
31.87892723083496
 30
28.649999618530273
 10
24.996198654174805
 20
31.736942291259766
 30
26.5
 10
20.343050003051758
 20
44.90458297729492
 30
0.0
 10
20.86101722717285
 20
50.993408203125
 30
0.0
 10
23.780363082885742
 20
44.5554313659668
 30
0.0
 10
23.78610610961914
 20
44.622920989990234
 30
0.0
 10
26.077972412109375
 20
44.364601135253906
 30
0.0
 10
25.430082321166992
 20
44.52434158325195
 30
6.449999809265137
 10
25.430082321166992
 20
44.52434158325195
 30
6.573286533355713
 10
26.282644271850586
 20
44.40177536010742
 30
6.449999809265137
 10
25.93316078186035
 20
50.43817138671875
 30
6.449999809265137
 10
24.299339294433594
 20
50.65420913696289
 30
0.0
 10
25.9373836517334
 20
50.487823486328125
 30
0.0
 10
25.94501304626465
 20
50.577510833740234
 30
0.0
 10
26.531158447265625
 20
66.24347686767578
 30
0.0
 10
26.544347763061523
 20
66.34130859375
 30
0.0
 10
26.556764602661133
 20
66.43341827392578
 30
6.449999809265137
 10
26.781410217285156
 20
50.30157470703125
 30
0.0
 10
26.790891647338867
 20
50.401126861572266
 30
0.0
 10
29.20759391784668
 20
44.10466766357422
 30
0.0
 10
29.211511611938477
 20
44.143245697021484
 30
0.0
 10
29.811063766479492
 20
50.04573059082031
 30
0.0
 10
26.781410217285156
 20
50.30157470703125
 30
6.449999809265137
 10
26.789546966552734
 20
50.38700866699219
 30
6.449999809265137
 10
26.789546966552734
 20
50.38700866699219
 30
6.907343864440918
 10
29.20759391784668
 20
44.10466766357422
 30
6.449999809265137
 10
29.211511611938477
 20
44.143245697021484
 30
6.449999809265137
 10
29.811063766479492
 20
50.04573059082031
 30
6.449999809265137
 10
32.64937210083008
 20
49.8060417175293
 30
0.0
 10
34.15031814575195
 20
43.703121185302734
 30
0.0
 10
34.15031814575195
 20
43.703121185302734
 30
6.449999809265137
 10
26.781410217285156
 20
50.30157470703125
 30
9.675000190734863
 10
26.789546966552734
 20
50.38700866699219
 30
9.675000190734863
 10
26.88999366760254
 20
50.38100814819336
 30
9.675000190734863
 10
32.64937210083008
 20
49.8060417175293
 30
9.675000190734863
 10
26.92934799194336
 20
69.1971435546875
 30
0.0
 10
28.28997802734375
 20
66.14120483398438
 30
0.0
 10
26.92934799194336
 20
69.1971435546875
 30
6.449999809265137
 10
28.392528533935547
 20
66.15663146972656
 30
6.449999809265137
 10
28.40184783935547
 20
66.25448608398438
 30
6.449999809265137
 10
34.14000701904297
 20
65.47059631347656
 30
0.0
 10
34.1442985534668
 20
65.50243377685547
 30
0.0
 10
34.43314743041992
 20
68.40599822998047
 30
0.0
 10
34.444435119628906
 20
68.5067138671875
 30
0.0
 10
34.54771423339844
 20
68.494873046875
 30
0.0
 10
34.1442985534668
 20
65.50243377685547
 30
6.449999809265137
 10
34.16021728515625
 20
65.66957092285156
 30
6.449999809265137
 10
34.43314743041992
 20
68.40599822998047
 30
6.449999809265137
 10
34.444435119628906
 20
68.5067138671875
 30
6.449999809265137
 10
34.54771423339844
 20
68.494873046875
 30
6.449999809265137
 10
35.50530242919922
 20
77.97161865234375
 30
0.0
 10
28.392528533935547
 20
66.15663146972656
 30
9.675000190734863
 10
26.92934799194336
 20
69.1971435546875
 30
14.300000190734863
 10
26.938867568969727
 20
69.26775360107422
 30
14.300000190734863
 10
34.16021728515625
 20
65.66957092285156
 30
9.675000190734863
 10
34.43314743041992
 20
68.40599822998047
 30
14.300000190734863
 10
35.50530242919922
 20
77.97161865234375
 30
14.300000190734863
 10
20.343050003051758
 20
44.90458297729492
 30
26.5
 10
20.343050003051758
 20
44.90458297729492
 30
27.5
 10
20.86101722717285
 20
50.993408203125
 30
26.5
 10
20.86101722717285
 20
50.993408203125
 30
27.5
 10
25.427047729492188
 20
44.48868179321289
 30
26.5
 10
25.430082321166992
 20
44.52434158325195
 30
26.5
 10
26.282644271850586
 20
44.40177536010742
 30
26.5
 10
25.427047729492188
 20
44.48868179321289
 30
27.5
 10
25.93315887451172
 20
50.43817138671875
 30
26.5
 10
25.94501304626465
 20
50.577510833740234
 30
26.5
 10
25.94501304626465
 20
50.577510833740234
 30
27.5
 10
26.556764602661133
 20
66.43341827392578
 30
25.210630416870117
 10
26.556764602661133
 20
66.43341827392578
 30
25.71544647216797
 10
26.531158447265625
 20
66.24347686767578
 30
26.5
 10
26.556764602661133
 20
66.43341827392578
 30
26.5
 10
26.88999366760254
 20
50.38100814819336
 30
26.5
 10
26.938867568969727
 20
69.26775360107422
 30
26.5
 10
28.40184783935547
 20
66.25448608398438
 30
26.5
 93
1232
 90
3
 90
5
 90
6
 90
7
 90
3
 90
6
 90
51
 90
7
 90
3
 90
17
 90
16
 90
14
 90
3
 90
15
 90
17
 90
14
 90
3
 90
15
 90
14
 90
18
 90
3
 90
15
 90
19
 90
17
 90
3
 90
17
 90
72
 90
16
 90
3
 90
15
 90
18
 90
19
 90
3
 90
17
 90
19
 90
72
 90
3
 90
72
 90
71
 90
16
 90
3
 90
19
 90
18
 90
71
 90
3
 90
19
 90
71
 90
72
 90
3
 90
21
 90
74
 90
20
 90
3
 90
25
 90
26
 90
35
 90
3
 90
25
 90
29
 90
34
 90
3
 90
25
 90
35
 90
29
 90
3
 90
34
 90
31
 90
32
 90
3
 90
25
 90
34
 90
36
 90
3
 90
34
 90
32
 90
36
 90
3
 90
36
 90
32
 90
33
 90
3
 90
25
 90
36
 90
26
 90
3
 90
26
 90
36
 90
35
 90
3
 90
36
 90
33
 90
45
 90
3
 90
35
 90
36
 90
37
 90
3
 90
45
 90
33
 90
44
 90
3
 90
36
 90
45
 90
37
 90
3
 90
46
 90
48
 90
47
 90
3
 90
48
 90
49
 90
47
 90
3
 90
46
 90
47
 90
68
 90
3
 90
46
 90
68
 90
48
 90
3
 90
47
 90
58
 90
68
 90
3
 90
48
 90
69
 90
49
 90
3
 90
69
 90
50
 90
49
 90
3
 90
58
 90
64
 90
68
 90
3
 90
8
 90
61
 90
52
 90
3
 90
8
 90
54
 90
61
 90
3
 90
54
 90
62
 90
61
 90
3
 90
53
 90
52
 90
63
 90
3
 90
55
 90
57
 90
56
 90
3
 90
53
 90
64
 90
55
 90
3
 90
55
 90
64
 90
57
 90
3
 90
57
 90
64
 90
58
 90
3
 90
59
 90
65
 90
67
 90
3
 90
60
 90
65
 90
59
 90
3
 90
106
 90
60
 90
50
 90
3
 90
52
 90
61
 90
62
 90
3
 90
52
 90
62
 90
63
 90
3
 90
53
 90
63
 90
64
 90
3
 90
60
 90
66
 90
65
 90
3
 90
106
 90
66
 90
60
 90
3
 90
65
 90
79
 90
67
 90
3
 90
48
 90
68
 90
69
 90
3
 90
69
 90
106
 90
50
 90
3
 90
68
 90
110
 90
69
 90
3
 90
64
 90
87
 90
68
 90
3
 90
68
 90
87
 90
100
 90
3
 90
68
 90
100
 90
110
 90
3
 90
69
 90
111
 90
106
 90
3
 90
106
 90
90
 90
66
 90
3
 90
69
 90
110
 90
111
 90
3
 90
81
 90
76
 90
67
 90
3
 90
81
 90
67
 90
79
 90
3
 90
21
 90
20
 90
75
 90
3
 90
21
 90
77
 90
74
 90
3
 90
21
 90
75
 90
77
 90
3
 90
74
 90
73
 90
20
 90
3
 90
74
 90
81
 90
73
 90
3
 90
81
 90
80
 90
73
 90
3
 90
74
 90
77
 90
81
 90
3
 90
77
 90
75
 90
76
 90
3
 90
77
 90
76
 90
81
 90
3
 90
81
 90
79
 90
80
 90
3
 90
83
 90
84
 90
92
 90
3
 90
83
 90
92
 90
86
 90
3
 90
85
 90
86
 90
87
 90
3
 90
86
 90
92
 90
87
 90
3
 90
92
 90
100
 90
87
 90
3
 90
98
 90
93
 90
99
 90
3
 90
88
 90
91
 90
89
 90
3
 90
90
 90
91
 90
88
 90
3
 90
103
 90
91
 90
90
 90
3
 90
103
 90
104
 90
91
 90
3
 90
84
 90
94
 90
92
 90
3
 90
92
 90
94
 90
93
 90
3
 90
92
 90
93
 90
98
 90
3
 90
91
 90
146
 90
89
 90
3
 90
95
 90
30
 90
31
 90
3
 90
31
 90
34
 90
95
 90
3
 90
29
 90
116
 90
34
 90
3
 90
34
 90
96
 90
95
 90
3
 90
34
 90
116
 90
96
 90
3
 90
29
 90
123
 90
116
 90
3
 90
29
 90
124
 90
123
 90
3
 90
29
 90
131
 90
124
 90
3
 90
29
 90
35
 90
137
 90
3
 90
35
 90
37
 90
134
 90
3
 90
35
 90
134
 90
136
 90
3
 90
35
 90
136
 90
137
 90
3
 90
92
 90
98
 90
100
 90
3
 90
98
 90
101
 90
100
 90
3
 90
98
 90
99
 90
102
 90
3
 90
98
 90
102
 90
101
 90
3
 90
100
 90
101
 90
110
 90
3
 90
99
 90
109
 90
102
 90
3
 90
101
 90
102
 90
108
 90
3
 90
102
 90
109
 90
108
 90
3
 90
103
 90
90
 90
106
 90
3
 90
103
 90
105
 90
104
 90
3
 90
103
 90
106
 90
107
 90
3
 90
103
 90
107
 90
108
 90
3
 90
101
 90
107
 90
111
 90
3
 90
106
 90
111
 90
107
 90
3
 90
101
 90
108
 90
107
 90
3
 90
99
 90
117
 90
109
 90
3
 90
101
 90
111
 90
110
 90
3
 90
108
 90
109
 90
115
 90
3
 90
109
 90
122
 90
115
 90
3
 90
117
 90
121
 90
109
 90
3
 90
109
 90
121
 90
122
 90
3
 90
115
 90
122
 90
126
 90
3
 90
103
 90
112
 90
105
 90
3
 90
112
 90
113
 90
105
 90
3
 90
103
 90
108
 90
112
 90
3
 90
112
 90
114
 90
113
 90
3
 90
112
 90
115
 90
114
 90
3
 90
112
 90
108
 90
115
 90
3
 90
115
 90
135
 90
114
 90
3
 90
115
 90
126
 90
135
 90
3
 90
96
 90
116
 90
117
 90
3
 90
116
 90
121
 90
117
 90
3
 90
118
 90
97
 90
120
 90
3
 90
118
 90
120
 90
127
 90
3
 90
127
 90
120
 90
119
 90
3
 90
29
 90
137
 90
131
 90
3
 90
116
 90
123
 90
121
 90
3
 90
121
 90
123
 90
122
 90
3
 90
122
 90
123
 90
125
 90
3
 90
123
 90
124
 90
125
 90
3
 90
122
 90
125
 90
130
 90
3
 90
124
 90
130
 90
125
 90
3
 90
118
 90
127
 90
128
 90
3
 90
122
 90
130
 90
126
 90
3
 90
124
 90
129
 90
130
 90
3
 90
126
 90
130
 90
127
 90
3
 90
127
 90
130
 90
128
 90
3
 90
128
 90
130
 90
129
 90
3
 90
124
 90
131
 90
129
 90
3
 90
129
 90
131
 90
136
 90
3
 90
135
 90
132
 90
114
 90
3
 90
127
 90
119
 90
132
 90
3
 90
118
 90
128
 90
133
 90
3
 90
118
 90
149
 90
97
 90
3
 90
133
 90
136
 90
134
 90
3
 90
127
 90
132
 90
135
 90
3
 90
126
 90
127
 90
135
 90
3
 90
128
 90
129
 90
136
 90
3
 90
133
 90
128
 90
136
 90
3
 90
131
 90
137
 90
136
 90
3
 90
148
 90
143
 90
89
 90
3
 90
148
 90
89
 90
146
 90
3
 90
139
 90
138
 90
142
 90
3
 90
141
 90
140
 90
138
 90
3
 90
139
 90
141
 90
138
 90
3
 90
139
 90
142
 90
145
 90
3
 90
139
 90
145
 90
141
 90
3
 90
141
 90
145
 90
148
 90
3
 90
145
 90
142
 90
143
 90
3
 90
145
 90
143
 90
148
 90
3
 90
148
 90
147
 90
140
 90
3
 90
141
 90
148
 90
140
 90
3
 90
148
 90
146
 90
147
 90
3
 90
37
 90
45
 90
134
 90
3
 90
43
 90
151
 90
44
 90
3
 90
151
 90
45
 90
44
 90
3
 90
45
 90
154
 90
134
 90
3
 90
45
 90
151
 90
152
 90
3
 90
45
 90
152
 90
154
 90
3
 90
118
 90
133
 90
149
 90
3
 90
133
 90
134
 90
154
 90
3
 90
133
 90
150
 90
149
 90
3
 90
133
 90
154
 90
150
 90
3
 90
154
 90
152
 90
150
 90
3
 90
0
 90
2
 90
1
 90
3
 90
0
 90
22
 90
2
 90
3
 90
0
 90
1
 90
9
 90
3
 90
2
 90
22
 90
5
 90
3
 90
22
 90
6
 90
5
 90
3
 90
0
 90
38
 90
22
 90
3
 90
2
 90
5
 90
7
 90
3
 90
2
 90
55
 90
4
 90
3
 90
3
 90
4
 90
58
 90
3
 90
2
 90
7
 90
52
 90
3
 90
1
 90
2
 90
10
 90
3
 90
3
 90
13
 90
4
 90
3
 90
2
 90
4
 90
11
 90
3
 90
3
 90
47
 90
12
 90
3
 90
22
 90
54
 90
6
 90
3
 90
6
 90
8
 90
51
 90
3
 90
6
 90
54
 90
8
 90
3
 90
22
 90
62
 90
54
 90
3
 90
0
 90
9
 90
38
 90
3
 90
1
 90
10
 90
9
 90
3
 90
9
 90
10
 90
11
 90
3
 90
9
 90
11
 90
38
 90
3
 90
11
 90
14
 90
38
 90
3
 90
38
 90
14
 90
16
 90
3
 90
2
 90
11
 90
10
 90
3
 90
3
 90
12
 90
13
 90
3
 90
4
 90
13
 90
11
 90
3
 90
11
 90
18
 90
14
 90
3
 90
12
 90
70
 90
13
 90
3
 90
11
 90
13
 90
75
 90
3
 90
11
 90
75
 90
18
 90
3
 90
38
 90
16
 90
73
 90
3
 90
20
 90
73
 90
16
 90
3
 90
16
 90
75
 90
20
 90
3
 90
16
 90
71
 90
75
 90
3
 90
23
 90
24
 90
28
 90
3
 90
23
 90
28
 90
39
 90
3
 90
23
 90
40
 90
24
 90
3
 90
22
 90
27
 90
62
 90
3
 90
27
 90
28
 90
83
 90
3
 90
24
 90
83
 90
28
 90
3
 90
24
 90
84
 90
83
 90
3
 90
22
 90
41
 90
27
 90
3
 90
27
 90
42
 90
28
 90
3
 90
24
 90
30
 90
84
 90
3
 90
24
 90
31
 90
30
 90
3
 90
24
 90
32
 90
31
 90
3
 90
24
 90
33
 90
32
 90
3
 90
24
 90
44
 90
33
 90
3
 90
22
 90
38
 90
41
 90
3
 90
23
 90
39
 90
40
 90
3
 90
39
 90
42
 90
40
 90
3
 90
39
 90
28
 90
42
 90
3
 90
27
 90
41
 90
42
 90
3
 90
38
 90
73
 90
41
 90
3
 90
41
 90
73
 90
138
 90
3
 90
41
 90
138
 90
42
 90
3
 90
40
 90
42
 90
138
 90
3
 90
40
 90
138
 90
140
 90
3
 90
24
 90
40
 90
44
 90
3
 90
40
 90
140
 90
43
 90
3
 90
40
 90
43
 90
44
 90
3
 90
3
 90
58
 90
47
 90
3
 90
12
 90
47
 90
49
 90
3
 90
70
 90
49
 90
50
 90
3
 90
78
 90
50
 90
60
 90
3
 90
2
 90
52
 90
53
 90
3
 90
2
 90
53
 90
55
 90
3
 90
4
 90
55
 90
56
 90
3
 90
4
 90
56
 90
58
 90
3
 90
7
 90
51
 90
52
 90
3
 90
51
 90
8
 90
52
 90
3
 90
27
 90
63
 90
62
 90
3
 90
57
 90
58
 90
56
 90
3
 90
60
 90
59
 90
67
 90
3
 90
87
 90
63
 90
85
 90
3
 90
64
 90
63
 90
87
 90
3
 90
78
 90
60
 90
67
 90
3
 90
65
 90
66
 90
79
 90
3
 90
144
 90
66
 90
90
 90
3
 90
12
 90
49
 90
70
 90
3
 90
70
 90
50
 90
78
 90
3
 90
13
 90
70
 90
78
 90
3
 90
78
 90
67
 90
76
 90
3
 90
82
 90
79
 90
66
 90
3
 90
82
 90
66
 90
144
 90
3
 90
13
 90
78
 90
75
 90
3
 90
71
 90
18
 90
75
 90
3
 90
78
 90
76
 90
75
 90
3
 90
82
 90
80
 90
79
 90
3
 90
144
 90
73
 90
80
 90
3
 90
82
 90
144
 90
80
 90
3
 90
27
 90
83
 90
63
 90
3
 90
83
 90
85
 90
63
 90
3
 90
83
 90
86
 90
85
 90
3
 90
90
 90
88
 90
89
 90
3
 90
91
 90
104
 90
105
 90
3
 90
99
 90
93
 90
94
 90
3
 90
94
 90
84
 90
117
 90
3
 90
105
 90
113
 90
91
 90
3
 90
144
 90
90
 90
89
 90
3
 90
113
 90
146
 90
91
 90
3
 90
30
 90
95
 90
84
 90
3
 90
95
 90
117
 90
84
 90
3
 90
99
 90
94
 90
117
 90
3
 90
117
 90
95
 90
96
 90
3
 90
119
 90
120
 90
132
 90
3
 90
155
 90
120
 90
97
 90
3
 90
155
 90
132
 90
120
 90
3
 90
144
 90
89
 90
143
 90
3
 90
153
 90
146
 90
113
 90
3
 90
138
 90
73
 90
142
 90
3
 90
144
 90
142
 90
73
 90
3
 90
144
 90
143
 90
142
 90
3
 90
153
 90
147
 90
146
 90
3
 90
155
 90
140
 90
147
 90
3
 90
43
 90
140
 90
151
 90
3
 90
155
 90
151
 90
140
 90
3
 90
153
 90
113
 90
114
 90
3
 90
153
 90
114
 90
155
 90
3
 90
153
 90
155
 90
147
 90
3
 90
155
 90
114
 90
132
 90
3
 90
155
 90
97
 90
149
 90
3
 90
155
 90
149
 90
150
 90
3
 90
155
 90
150
 90
152
 90
3
 90
155
 90
152
 90
151
 94
0
 95
0
 90
0
  0
ENDSEC
  0
SECTION
  2
OBJECTS
  0
DICTIONARY
  5
A
330
0
100
AcDbDictionary
281
1
  3
ACAD_COLOR
350
B
  3
ACAD_GROUP
350
C
  3
ACAD_LAYOUT
350
D
  3
ACAD_MATERIAL
350
E
  3
ACAD_MLEADERSTYLE
350
F
  3
ACAD_MLINESTYLE
350
10
  3
ACAD_PLOTSETTINGS
350
11
  3
ACAD_PLOTSTYLENAME
350
12
  3
ACAD_SCALELIST
350
14
  3
ACAD_TABLESTYLE
350
15
  3
ACAD_VISUALSTYLE
350
16
  3
EZDXF_META
350
2D
  0
DICTIONARY
  5
B
330
A
100
AcDbDictionary
281
1
  0
DICTIONARY
  5
C
330
A
100
AcDbDictionary
281
1
  0
DICTIONARY
  5
D
330
A
100
AcDbDictionary
281
1
  3
Model
350
1A
  3
Layout1
350
1E
  0
DICTIONARY
  5
E
330
A
100
AcDbDictionary
281
1
  3
ByBlock
350
1F
  3
ByLayer
350
20
  3
Global
350
21
  0
DICTIONARY
  5
F
330
A
100
AcDbDictionary
281
1
  3
Standard
350
2C
  0
DICTIONARY
  5
10
330
A
100
AcDbDictionary
281
1
  3
Standard
350
22
  0
DICTIONARY
  5
11
330
A
100
AcDbDictionary
281
1
  0
ACDBDICTIONARYWDFLT
  5
12
330
A
100
AcDbDictionary
281
1
  3
Normal
350
13
100
AcDbDictionaryWithDefault
340
13
  0
ACDBPLACEHOLDER
  5
13
330
12
  0
DICTIONARY
  5
14
330
A
100
AcDbDictionary
281
1
  0
DICTIONARY
  5
15
330
A
100
AcDbDictionary
281
1
  0
DICTIONARY
  5
16
330
A
100
AcDbDictionary
281
1
  0
LAYOUT
  5
1A
330
D
100
AcDbPlotSettings
  1

  4
A3
  6

 40
7.5
 41
20.0
 42
7.5
 43
20.0
 44
420.0
 45
297.0
 46
0.0
 47
0.0
 48
0.0
 49
0.0
140
0.0
141
0.0
142
1.0
143
1.0
 70
1024
 72
1
 73
0
 74
5
  7

 75
16
 76
0
 77
2
 78
300
147
1.0
148
0.0
149
0.0
100
AcDbLayout
  1
Model
 70
1
 71
0
 10
0.0
 20
0.0
 11
420.0
 21
297.0
 12
0.0
 22
0.0
 32
0.0
 14
1e+20
 24
1e+20
 34
1e+20
 15
-1e+20
 25
-1e+20
 35
-1e+20
146
0.0
 13
0.0
 23
0.0
 33
0.0
 16
1.0
 26
0.0
 36
0.0
 17
0.0
 27
1.0
 37
0.0
 76
1
330
17
  0
LAYOUT
  5
1E
330
D
100
AcDbPlotSettings
  1

  4
A3
  6

 40
7.5
 41
20.0
 42
7.5
 43
20.0
 44
420.0
 45
297.0
 46
0.0
 47
0.0
 48
0.0
 49
0.0
140
0.0
141
0.0
142
1.0
143
1.0
 70
0
 72
1
 73
0
 74
5
  7

 75
16
 76
0
 77
2
 78
300
147
1.0
148
0.0
149
0.0
100
AcDbLayout
  1
Layout1
 70
1
 71
1
 10
0.0
 20
0.0
 11
420.0
 21
297.0
 12
0.0
 22
0.0
 32
0.0
 14
1e+20
 24
1e+20
 34
1e+20
 15
-1e+20
 25
-1e+20
 35
-1e+20
146
0.0
 13
0.0
 23
0.0
 33
0.0
 16
1.0
 26
0.0
 36
0.0
 17
0.0
 27
1.0
 37
0.0
 76
1
330
1B
  0
MATERIAL
  5
1F
102
{ACAD_REACTORS
330
E
102
}
330
E
100
AcDbMaterial
  1
ByBlock
  2

 70
0
 40
1.0
 71
1
 41
1.0
 91
-1023410177
 42
1.0
 72
1
  3

 73
1
 74
1
 75
1
 44
0.5
 73
0
 45
1.0
 46
1.0
 77
1
  4

 78
1
 79
1
170
1
 48
1.0
171
1
  6

172
1
173
1
174
1
140
1.0
141
1.0
175
1
  7

176
1
177
1
178
1
143
1.0
179
1
  8

270
1
271
1
272
1
145
1.0
146
1.0
273
1
  9

274
1
275
1
276
1
 42
1.0
 72
1
  3

 73
1
 74
1
 75
1
 94
63
  0
MATERIAL
  5
20
102
{ACAD_REACTORS
330
E
102
}
330
E
100
AcDbMaterial
  1
ByLayer
  2

 70
0
 40
1.0
 71
1
 41
1.0
 91
-1023410177
 42
1.0
 72
1
  3

 73
1
 74
1
 75
1
 44
0.5
 73
0
 45
1.0
 46
1.0
 77
1
  4

 78
1
 79
1
170
1
 48
1.0
171
1
  6

172
1
173
1
174
1
140
1.0
141
1.0
175
1
  7

176
1
177
1
178
1
143
1.0
179
1
  8

270
1
271
1
272
1
145
1.0
146
1.0
273
1
  9

274
1
275
1
276
1
 42
1.0
 72
1
  3

 73
1
 74
1
 75
1
 94
63
  0
MATERIAL
  5
21
102
{ACAD_REACTORS
330
E
102
}
330
E
100
AcDbMaterial
  1
Global
  2

 70
0
 40
1.0
 71
1
 41
1.0
 91
-1023410177
 42
1.0
 72
1
  3

 73
1
 74
1
 75
1
 44
0.5
 73
0
 45
1.0
 46
1.0
 77
1
  4

 78
1
 79
1
170
1
 48
1.0
171
1
  6

172
1
173
1
174
1
140
1.0
141
1.0
175
1
  7

176
1
177
1
178
1
143
1.0
179
1
  8

270
1
271
1
272
1
145
1.0
146
1.0
273
1
  9

274
1
275
1
276
1
 42
1.0
 72
1
  3

 73
1
 74
1
 75
1
 94
63
  0
MLINESTYLE
  5
22
102
{ACAD_REACTORS
330
10
102
}
330
10
100
AcDbMlineStyle
  2
Standard
 70
0
  3

 62
256
 51
90.0
 52
90.0
 71
2
 49
0.5
 62
256
  6
BYLAYER
 49
-0.5
 62
256
  6
BYLAYER
  0
MLEADERSTYLE
  5
2C
102
{ACAD_REACTORS
330
F
102
}
330
F
100
AcDbMLeaderStyle
179
2
170
2
171
1
172
0
 90
2
 40
0.0
 41
0.0
173
1
 91
-1056964608
 92
-2
290
1
 42
2.0
291
1
 43
8.0
  3
Standard
 44
4.0
300

342
29
174
1
175
1
176
0
178
1
 93
-1056964608
 45
4.0
292
0
297
0
 46
4.0
 94
-1056964608
 47
1.0
 49
1.0
140
1.0
294
1
141
0.0
177
0
142
1.0
295
0
296
0
143
3.75
271
0
272
9
273
9
  0
DICTIONARY
  5
2D
330
A
100
AcDbDictionary
280
1
281
1
  3
CREATED_BY_EZDXF
350
2E
  3
WRITTEN_BY_EZDXF
350
33
  0
DICTIONARYVAR
  5
2E
330
2D
100
DictionaryVariables
280
0
  1
1.4.3 @ 2026-02-21T03:37:03.071588+00:00
  0
DICTIONARYVAR
  5
33
330
2D
100
DictionaryVariables
280
0
  1
1.4.3 @ 2026-02-21T03:37:03.074850+00:00
  0
ENDSEC
  0
EOF
